<?xml version="1.0" standalone="no"?>
<!DOCTYPE svg PUBLIC "-//W3C//DTD SVG 20010904//EN"
 "http://www.w3.org/TR/2001/REC-SVG-20010904/DTD/svg10.dtd">
<svg version="1.0" xmlns="http://www.w3.org/2000/svg"
 width="256.000000pt" height="256.000000pt" viewBox="0 0 256.000000 256.000000"
 preserveAspectRatio="xMidYMid meet">
<metadata>
Created by potrace 1.10, written by Peter Selinger 2001-2011
</metadata>
<g transform="translate(0.000000,256.000000) scale(0.100000,-0.100000)"
fill="#000000" stroke="none">
<path d="M1778 2123 c12 -2 32 -2 45 0 12 2 2 4 -23 4 -25 0 -35 -2 -22 -4z"/>
<path d="M1920 2020 c0 -5 5 -10 10 -10 6 0 10 5 10 10 0 6 -4 10 -10 10 -5 0
-10 -4 -10 -10z"/>
<path d="M1733 1988 c-2 -5 33 -8 79 -8 46 0 94 -3 108 -7 14 -3 21 -2 17 3
-10 11 -197 22 -204 12z"/>
<path d="M2025 1940 c-3 -5 1 -10 10 -10 9 0 13 5 10 10 -3 6 -8 10 -10 10 -2
0 -7 -4 -10 -10z"/>
<path d="M1435 1889 c-11 -17 1 -21 15 -4 8 9 8 15 2 15 -6 0 -14 -5 -17 -11z"/>
<path d="M2130 1884 c0 -8 5 -12 10 -9 6 4 8 11 5 16 -9 14 -15 11 -15 -7z"/>
<path d="M1198 1843 c-3 -4 -6 -55 -7 -113 -2 -87 0 -103 11 -92 9 10 12 39
10 110 -4 96 -6 111 -14 95z"/>
<path d="M1373 1834 c3 -3 2 -16 -3 -28 -5 -13 -4 -29 1 -37 7 -12 9 -12 10 1
1 8 1 23 0 33 -1 9 3 17 8 17 6 0 11 5 11 10 0 6 -7 10 -17 10 -9 0 -14 -3
-10 -6z"/>
<path d="M2210 1790 c0 -19 3 -21 12 -12 9 9 9 15 0 24 -9 9 -12 7 -12 -12z"/>
<path d="M2390 1720 c-1 -36 -3 -85 -5 -110 -2 -25 -6 -97 -9 -160 -5 -122
-13 -157 -45 -189 -11 -11 -27 -31 -37 -46 -9 -14 -19 -23 -22 -21 -2 3 -23
-7 -46 -23 -56 -37 -124 -68 -172 -77 -21 -3 -43 -9 -49 -13 -19 -11 -61 -13
-245 -12 -199 1 -265 -10 -325 -52 -47 -34 -64 -58 -71 -107 -6 -45 -42 -128
-66 -155 -7 -8 -18 -20 -24 -27 -6 -7 -26 -24 -44 -38 -18 -14 -38 -30 -44
-35 -6 -6 -37 -24 -68 -40 -32 -17 -58 -34 -58 -38 0 -5 -5 -5 -10 -2 -6 4
-16 3 -23 -2 -40 -31 -240 -58 -363 -49 -50 3 -127 15 -170 27 -78 20 -214 79
-245 106 -14 12 -18 11 -29 -2 -10 -12 -10 -15 1 -15 28 0 108 -47 97 -58 -6
-6 1 -8 21 -6 31 4 42 -9 19 -20 -7 -3 -3 -4 8 -1 12 3 48 -2 80 -11 33 -8 77
-20 99 -26 63 -16 309 -12 391 6 109 23 244 83 244 107 0 5 6 9 13 9 8 0 22 9
32 20 10 11 20 18 24 16 9 -6 31 21 23 28 -3 4 4 9 16 13 12 3 20 9 17 13 -3
5 3 16 12 26 22 21 43 62 43 81 0 8 5 11 11 7 6 -3 10 1 9 12 -5 41 0 53 18
48 13 -5 14 -4 3 4 -8 6 -11 17 -7 28 6 16 9 16 17 4 9 -12 10 -11 6 6 -4 21
25 58 37 47 3 -4 6 -2 6 4 0 6 19 19 43 29 36 15 75 19 261 21 121 1 226 5
235 9 9 4 25 9 36 11 32 6 116 39 165 66 96 51 123 70 114 79 -2 3 5 13 16 23
25 23 30 18 22 -22 -7 -30 -100 -143 -119 -143 -5 0 -16 -9 -26 -20 -9 -11
-24 -20 -32 -20 -9 0 -14 -4 -11 -9 3 -5 -16 -12 -42 -16 -26 -4 -51 -10 -57
-15 -5 -4 -35 -11 -65 -15 -77 -10 -470 -15 -440 -5 19 6 14 7 -22 6 -25 0
-46 -3 -45 -6 1 -3 -19 -25 -44 -50 -34 -34 -45 -52 -45 -75 1 -16 -3 -35 -9
-42 -26 -31 -32 -40 -54 -76 -12 -20 -30 -43 -39 -50 -10 -6 -35 -38 -56 -69
-22 -32 -45 -58 -53 -58 -7 0 -13 -4 -13 -10 0 -5 -5 -10 -10 -10 -6 0 -20 -9
-31 -19 -31 -28 -126 -61 -186 -64 -28 -1 -46 -5 -40 -9 7 -5 8 -8 2 -9 -5 -1
-21 -3 -35 -6 -14 -2 -94 -6 -177 -10 -114 -4 -153 -2 -153 6 0 7 5 9 12 5 7
-4 8 -3 4 5 -4 6 -16 9 -26 6 -10 -3 -21 -2 -24 3 -3 6 -26 13 -51 16 -24 4
-47 11 -50 15 -2 5 -26 14 -52 21 -27 7 -63 27 -83 46 -19 18 -47 36 -63 39
-29 8 -60 42 -51 57 3 5 0 7 -8 6 -7 -2 -12 5 -12 14 1 10 -3 16 -9 15 -18 -4
-35 44 -33 94 1 27 -1 49 -5 49 -4 0 -10 17 -12 38 -2 20 -4 3 -5 -38 -2 -91
10 -139 43 -170 14 -13 25 -29 25 -35 0 -11 101 -85 117 -85 4 0 16 -9 27 -19
12 -10 59 -31 106 -46 47 -15 94 -31 105 -35 57 -25 113 -31 234 -25 180 10
325 45 418 103 40 25 73 49 73 54 0 6 18 30 40 55 22 25 40 50 40 55 0 5 5 6
10 3 6 -3 10 0 10 8 0 7 9 23 20 35 12 12 17 22 13 22 -4 0 -3 4 2 8 16 11 51
74 59 107 4 17 24 46 45 66 l38 37 275 3 c171 3 281 8 289 15 8 6 40 19 73 30
42 14 76 35 122 77 35 32 64 66 64 75 0 8 3 12 7 9 16 -17 31 37 42 148 25
277 33 430 23 455 -9 21 -11 15 -12 -40z"/>
<path d="M2217 1747 c-3 -8 -1 -20 4 -28 6 -10 9 -7 9 14 0 29 -5 35 -13 14z"/>
<path d="M560 1656 c-47 -7 -94 -18 -105 -24 -11 -6 -51 -22 -90 -37 -84 -32
-135 -64 -135 -86 0 -12 9 -8 35 15 20 19 56 38 85 45 28 7 56 18 63 24 11 11
30 17 69 20 9 1 15 4 12 8 -8 13 54 21 213 25 141 4 169 2 220 -15 32 -10 70
-22 85 -25 15 -3 34 -13 42 -22 11 -10 21 -12 32 -6 13 7 8 13 -27 28 -24 10
-48 18 -54 19 -5 0 -14 3 -20 7 -44 28 -303 42 -425 24z"/>
<path d="M1247 1607 c-4 -10 1 -18 14 -22 10 -4 19 -11 19 -16 0 -5 7 -9 15
-9 8 0 15 5 15 10 0 6 -5 10 -11 10 -6 0 -19 10 -28 22 -15 18 -19 19 -24 5z"/>
<path d="M1106 1571 c-3 -5 1 -11 9 -15 8 -3 15 -1 15 4 0 13 -18 22 -24 11z"/>
<path d="M1321 1548 c-1 -9 8 -20 19 -23 11 -3 20 -10 20 -15 0 -14 67 -42 87
-37 13 3 9 6 -13 12 -17 4 -43 18 -57 31 -14 13 -30 24 -36 24 -5 0 -12 6 -14
13 -3 7 -6 6 -6 -5z"/>
<path d="M589 1548 c-7 -24 -5 -36 6 -32 20 8 27 34 10 34 -8 0 -15 -1 -16 -2z"/>
<path d="M635 1540 c8 -13 165 -11 165 1 0 5 -39 9 -86 9 -56 0 -83 -4 -79
-10z"/>
<path d="M821 1541 c-10 -7 -10 -10 -1 -16 6 -4 16 -3 22 3 13 13 -4 23 -21
13z"/>
<path d="M1155 1540 c3 -5 11 -10 16 -10 6 0 7 5 4 10 -3 6 -11 10 -16 10 -6
0 -7 -4 -4 -10z"/>
<path d="M1250 1540 c0 -5 5 -10 10 -10 6 0 10 5 10 10 0 6 -4 10 -10 10 -5 0
-10 -4 -10 -10z"/>
<path d="M872 1519 c3 -8 12 -14 21 -14 8 0 19 -4 23 -8 10 -10 34 -9 34 2 0
5 -11 12 -24 15 -13 3 -32 9 -41 13 -13 4 -16 2 -13 -8z"/>
<path d="M1310 1510 c6 -11 13 -20 16 -20 2 0 0 9 -6 20 -6 11 -13 20 -16 20
-2 0 0 -9 6 -20z"/>
<path d="M485 1510 c-3 -5 -15 -10 -26 -10 -10 0 -19 -4 -19 -10 0 -13 3 -13
35 2 14 6 25 15 25 20 0 11 -7 10 -15 -2z"/>
<path d="M180 1479 c-19 -16 -35 -33 -35 -37 -1 -4 -9 -23 -20 -42 -44 -81
-54 -125 -48 -229 2 -55 0 -116 -6 -137 -10 -35 -9 -36 6 -22 13 14 16 40 16
150 0 73 3 138 7 143 4 6 11 21 15 35 4 13 14 30 21 38 8 7 14 21 14 31 0 10
16 32 35 50 19 17 35 36 35 41 0 13 0 13 -40 -21z"/>
<path d="M613 1498 c-42 -14 -43 -30 -2 -23 47 8 180 9 217 1 21 -5 32 -4 32
3 0 6 -11 11 -24 11 -14 0 -28 5 -31 10 -9 15 -92 12 -98 -2 -4 -10 -7 -10
-18 0 -15 14 -31 14 -76 0z"/>
<path d="M560 1492 c0 -7 -10 -13 -22 -13 -19 -1 -20 -2 -4 -6 20 -5 44 12 33
24 -4 3 -7 1 -7 -5z"/>
<path d="M965 1490 c3 -5 8 -10 11 -10 2 0 4 5 4 10 0 6 -5 10 -11 10 -5 0 -7
-4 -4 -10z"/>
<path d="M1000 1480 c0 -5 5 -10 10 -10 6 0 10 5 10 10 0 6 -4 10 -10 10 -5 0
-10 -4 -10 -10z"/>
<path d="M1260 1486 c0 -2 8 -10 18 -17 15 -13 16 -12 3 4 -13 16 -21 21 -21
13z"/>
<path d="M885 1470 c-3 -5 -3 -10 2 -10 4 0 19 -3 33 -6 24 -5 24 -5 6 10 -23
19 -32 20 -41 6z"/>
<path d="M376 1455 c-16 -12 -17 -15 -4 -15 8 0 21 7 28 15 16 19 1 19 -24 0z"/>
<path d="M1025 1460 c-3 -5 -1 -10 4 -10 6 0 11 5 11 10 0 6 -2 10 -4 10 -3 0
-8 -4 -11 -10z"/>
<path d="M1472 1461 c-11 -6 -10 -10 4 -15 20 -8 32 0 18 14 -5 5 -15 5 -22 1z"/>
<path d="M950 1449 c0 -9 79 -33 86 -27 3 4 -4 9 -15 13 -12 3 -21 10 -21 16
0 5 -11 8 -25 7 -14 -1 -25 -5 -25 -9z"/>
<path d="M406 1430 c-18 -18 -18 -19 5 -13 13 4 30 13 37 20 11 11 10 13 -5
12 -10 0 -26 -9 -37 -19z"/>
<path d="M1050 1440 c0 -5 5 -9 11 -7 6 1 13 -3 16 -10 2 -6 -6 -13 -19 -15
-20 -4 -21 -6 -6 -12 11 -5 23 -2 34 9 15 15 15 17 -2 30 -23 17 -34 19 -34 5z"/>
<path d="M1280 1443 c8 -3 23 -12 33 -21 15 -14 17 -13 17 2 0 9 -4 15 -9 11
-5 -3 -12 -1 -16 5 -3 5 -14 10 -23 9 -14 0 -14 -2 -2 -6z"/>
<path d="M1523 1433 c9 -2 23 -2 30 0 6 3 -1 5 -18 5 -16 0 -22 -2 -12 -5z"/>
<path d="M342 1410 c11 -17 10 -22 -2 -30 -8 -5 -11 -12 -7 -16 4 -4 16 2 27
14 21 23 27 37 10 27 -5 -3 -10 1 -10 9 0 9 -7 16 -15 16 -13 0 -13 -3 -3 -20z"/>
<path d="M310 1390 c0 -11 -6 -23 -14 -26 -9 -3 -12 -12 -9 -21 4 -10 2 -14
-4 -10 -6 4 -14 0 -17 -9 -8 -20 -8 -88 0 -108 13 -33 22 -14 19 39 -3 43 0
55 11 55 8 0 14 1 15 3 5 18 9 97 5 97 -3 0 -6 -9 -6 -20z"/>
<path d="M1650 1400 c8 -5 24 -10 35 -10 17 0 17 2 5 10 -8 5 -24 10 -35 10
-17 0 -17 -2 -5 -10z"/>
<path d="M1110 1392 c0 -7 -7 -12 -15 -12 -8 0 -15 -4 -15 -10 0 -16 27 -11
34 6 4 9 4 19 1 22 -3 3 -5 0 -5 -6z"/>
<path d="M1336 1391 c-4 -7 -5 -15 -2 -18 9 -9 19 4 14 18 -4 11 -6 11 -12 0z"/>
<path d="M1740 1396 c0 -2 7 -6 15 -10 8 -3 15 -1 15 4 0 6 -7 10 -15 10 -8 0
-15 -2 -15 -4z"/>
<path d="M1805 1380 c27 -12 35 -12 35 0 0 6 -12 10 -27 9 -25 0 -26 -1 -8 -9z"/>
<path d="M1948 1383 c7 -3 16 -2 19 1 4 3 -2 6 -13 5 -11 0 -14 -3 -6 -6z"/>
<path d="M225 1349 c-4 -6 -5 -12 -2 -15 2 -3 7 2 10 11 7 17 1 20 -8 4z"/>
<path d="M1124 1352 c-7 -5 -7 -14 1 -29 7 -13 15 -20 18 -16 4 3 8 -9 9 -28
0 -19 2 -38 3 -44 2 -5 4 -17 5 -25 1 -8 6 -1 11 15 12 38 2 105 -16 105 -8 0
-15 7 -17 15 -2 8 -8 11 -14 7z"/>
<path d="M1361 1331 c-10 -6 -10 -10 -1 -16 13 -8 24 -1 19 14 -3 6 -10 7 -18
2z"/>
<path d="M2235 1266 c-44 -30 -118 -61 -167 -71 -9 -2 -25 -8 -35 -13 -50 -26
-261 -30 -378 -7 -93 18 -110 23 -227 74 -26 12 -52 21 -57 21 -22 0 -10 -21
17 -30 15 -6 38 -17 53 -24 115 -65 375 -101 529 -73 83 15 235 72 260 97 3 3
18 13 35 22 29 16 45 38 28 38 -4 0 -30 -16 -58 -34z"/>
<path d="M1344 1184 c-3 -25 -7 -81 -7 -123 0 -42 -2 -80 -5 -86 -4 -5 -7 -16
-8 -25 -1 -8 -5 -23 -9 -32 -4 -11 -3 -18 4 -18 6 0 14 18 17 40 4 22 10 40
13 40 4 0 8 37 9 83 0 45 3 101 6 125 6 57 -11 54 -20 -4z"/>
<path d="M290 1170 c0 -5 5 -10 11 -10 5 0 7 5 4 10 -3 6 -8 10 -11 10 -2 0
-4 -4 -4 -10z"/>
<path d="M100 1100 c0 -11 5 -20 10 -20 6 0 10 9 10 20 0 11 -4 20 -10 20 -5
0 -10 -9 -10 -20z"/>
<path d="M1528 1103 c7 -3 16 -2 19 1 4 3 -2 6 -13 5 -11 0 -14 -3 -6 -6z"/>
<path d="M980 1089 c0 -5 5 -7 10 -4 6 3 10 8 10 11 0 2 -4 4 -10 4 -5 0 -10
-5 -10 -11z"/>
<path d="M130 1071 c0 -5 7 -12 16 -15 14 -5 15 -4 4 9 -14 17 -20 19 -20 6z"/>
<path d="M92 975 c6 -63 18 -68 15 -6 -1 28 -6 51 -10 51 -5 0 -7 -20 -5 -45z"/>
<path d="M197 1009 c6 -6 9 -30 7 -52 -3 -32 -2 -37 5 -22 5 11 10 35 10 53 1
24 -3 32 -16 32 -12 0 -14 -3 -6 -11z"/>
<path d="M1993 1007 c22 -5 47 -6 58 -1 14 7 3 9 -38 10 -56 1 -57 1 -20 -9z"/>
<path d="M1651 995 c7 -6 289 -8 296 -1 4 3 -63 6 -147 6 -84 0 -151 -2 -149
-5z"/>
<path d="M254 965 c31 -25 32 -30 22 -163 -1 -17 1 -38 6 -45 4 -6 8 25 8 70
0 45 3 88 6 96 5 15 -42 67 -61 67 -5 -1 3 -12 19 -25z"/>
<path d="M1178 963 c7 -3 16 -2 19 1 4 3 -2 6 -13 5 -11 0 -14 -3 -6 -6z"/>
<path d="M72 910 c0 -14 2 -19 5 -12 2 6 2 18 0 25 -3 6 -5 1 -5 -13z"/>
<path d="M241 914 c0 -11 3 -14 6 -6 3 7 2 16 -1 19 -3 4 -6 -2 -5 -13z"/>
<path d="M359 926 c-7 -7 2 -216 9 -216 7 0 7 209 -1 216 -2 2 -6 2 -8 0z"/>
<path d="M324 820 c0 -58 1 -81 3 -52 2 28 2 76 0 105 -2 28 -3 5 -3 -53z"/>
<path d="M390 911 c0 -10 22 -31 32 -31 17 0 7 28 -12 33 -11 3 -20 2 -20 -2z"/>
<path d="M198 894 c-2 -36 4 -79 13 -88 5 -6 6 13 2 45 -6 57 -12 75 -15 43z"/>
<path d="M452 861 c-1 -47 17 -67 20 -22 0 17 1 36 2 43 1 6 -4 13 -10 15 -7
2 -12 -11 -12 -36z"/>
<path d="M242 870 c0 -14 2 -19 5 -12 2 6 2 18 0 25 -3 6 -5 1 -5 -13z"/>
<path d="M409 840 c-7 -35 -4 -48 7 -38 3 4 4 21 2 40 l-3 33 -6 -35z"/>
<path d="M880 859 c0 -5 9 -9 20 -9 11 0 20 2 20 4 0 2 -9 6 -20 9 -11 3 -20
1 -20 -4z"/>
<path d="M970 860 c-9 -6 -10 -10 -3 -10 6 0 15 5 18 10 8 12 4 12 -15 0z"/>
<path d="M1283 858 c2 -7 -9 -25 -25 -40 -20 -19 -25 -29 -16 -34 7 -4 14 -2
16 5 2 7 13 21 23 29 21 18 26 52 8 52 -6 0 -9 -6 -6 -12z"/>
<path d="M550 845 c12 -15 30 -12 30 6 0 5 -10 9 -21 9 -18 0 -19 -2 -9 -15z"/>
<path d="M500 776 c0 -42 4 -75 9 -72 10 7 9 132 -2 142 -4 4 -7 -27 -7 -70z"/>
<path d="M600 840 c0 -5 5 -10 10 -10 6 0 10 5 10 10 0 6 -4 10 -10 10 -5 0
-10 -4 -10 -10z"/>
<path d="M630 839 c0 -5 5 -7 10 -4 6 3 10 8 10 11 0 2 -4 4 -10 4 -5 0 -10
-5 -10 -11z"/>
<path d="M738 843 c12 -2 32 -2 45 0 12 2 2 4 -23 4 -25 0 -35 -2 -22 -4z"/>
<path d="M825 840 c-3 -6 1 -7 9 -4 18 7 21 14 7 14 -6 0 -13 -4 -16 -10z"/>
<path d="M553 775 c0 -27 2 -38 4 -22 2 15 2 37 0 50 -2 12 -4 0 -4 -28z"/>
<path d="M184 794 c9 -8 16 -22 16 -30 0 -8 5 -14 10 -14 6 0 10 4 10 10 0 13
-32 50 -43 50 -5 0 -1 -7 7 -16z"/>
<path d="M236 801 c-4 -5 -2 -12 3 -15 5 -4 12 -2 15 3 4 5 2 12 -3 15 -5 4
-12 2 -15 -3z"/>
<path d="M458 780 c-12 -38 -10 -66 3 -53 6 6 9 26 7 44 -3 32 -3 33 -10 9z"/>
<path d="M1150 770 c0 -5 5 -10 10 -10 6 0 10 5 10 10 0 6 -4 10 -10 10 -5 0
-10 -4 -10 -10z"/>
<path d="M1200 758 c-49 -44 -192 -108 -287 -127 -50 -11 -96 -21 -100 -24
-25 -16 -318 24 -388 52 -67 28 -135 63 -135 71 0 5 -6 7 -14 4 -7 -3 -16 2
-19 10 -8 20 -27 21 -27 2 0 -7 15 -21 33 -30 17 -9 47 -26 65 -36 81 -49 250
-87 402 -92 114 -3 258 30 365 86 44 22 86 47 93 53 7 7 20 17 29 21 8 5 14
14 12 21 -3 7 -14 3 -29 -11z"/>
<path d="M410 735 c0 -14 4 -25 9 -25 4 0 6 11 3 25 -2 14 -6 25 -8 25 -2 0
-4 -11 -4 -25z"/>
<path d="M133 725 c-19 -21 -16 -27 7 -13 11 7 20 16 20 20 0 12 -14 9 -27 -7z"/>
<path d="M167 713 c-7 -11 41 -58 50 -49 4 4 -5 18 -19 32 -14 14 -28 22 -31
17z"/>
<path d="M550 684 c0 -21 3 -34 7 -31 10 11 12 56 2 62 -5 4 -9 -11 -9 -31z"/>
<path d="M1040 710 c-8 -5 -12 -11 -10 -14 3 -2 14 2 24 10 22 15 10 19 -14 4z"/>
<path d="M450 695 c0 -8 5 -15 10 -15 6 0 10 7 10 15 0 8 -4 15 -10 15 -5 0
-10 -7 -10 -15z"/>
<path d="M500 680 c0 -5 5 -10 11 -10 5 0 7 5 4 10 -3 6 -8 10 -11 10 -2 0 -4
-4 -4 -10z"/>
<path d="M260 590 c0 -6 7 -10 15 -10 8 0 15 2 15 4 0 2 -7 6 -15 10 -8 3 -15
1 -15 -4z"/>
<path d="M448 593 c6 -2 18 -2 25 0 6 3 1 5 -13 5 -14 0 -19 -2 -12 -5z"/>
<path d="M688 553 c6 -2 18 -2 25 0 6 3 1 5 -13 5 -14 0 -19 -2 -12 -5z"/>
<path d="M758 553 c7 -3 16 -2 19 1 4 3 -2 6 -13 5 -11 0 -14 -3 -6 -6z"/>
<path d="M478 508 c6 -6 18 -8 28 -6 14 3 12 5 -9 10 -19 3 -25 2 -19 -4z"/>
<path d="M997 479 c7 -7 15 -10 18 -7 3 3 -2 9 -12 12 -14 6 -15 5 -6 -5z"/>
<path d="M928 463 c7 -3 16 -2 19 1 4 3 -2 6 -13 5 -11 0 -14 -3 -6 -6z"/>
<path d="M698 443 c34 -2 88 -2 120 0 31 2 3 3 -63 3 -66 0 -92 -1 -57 -3z"/>
</g>
</svg>
